<svg xmlns="http://www.w3.org/2000/svg" xmlns:xlink="http://www.w3.org/1999/xlink" xmlns:fi="http://pattern.flaticon.com/" x="0" y="0" width="700" height="350" viewBox="0 0 700 350"><rect x="0px" y="0px" width="100%" height="100%" opacity="1" fill="#1d1d1d"/><defs><g transform="matrix(0.47666012040874417 -0.47666012040874417 0.47666012040874417 0.47666012040874417 227.96869341651828 293.78519954759963)" id="L1_7" fill="#000000"><path d="m9 60h36c2.7600532-.0033061 4.9966939-2.2399468 5-5v-46c-.0042686-2.40788675-1.724146-4.47073086-4.092-4.908-.4372691-2.36785399-2.5001132-4.08773136-4.908-4.092h-27c-.2651948.00005664-.5195073.10545063-.707.293l-13 13c-.18754937.1874927-.29294336.4418052-.293.707v37c.00426864 2.4078868 1.72414601 4.4707309 4.092 4.908.43726914 2.367854 2.50011325 4.0877314 4.908 4.092zm39-51v46c0 1.6568542-1.3431458 3-3 3h-36c-1.26678543-.0052514-2.39374545-.8056491-2.816-2h34.816c2.7600532-.0033061 4.9966939-2.2399468 5-5v-44.816c1.1943509.42225455 1.9947486 1.54921457 2 2.816zm-35-5.586v6.586c0 1.6568542-1.3431458 3-3 3h-6.586zm-11 47.586v-36h8c2.7600532-.0033061 4.9966939-2.2399468 5-5v-8h26c1.6568542 0 3 1.34314575 3 3v46c0 1.6568542-1.3431458 3-3 3h-36c-1.65685425 0-3-1.3431458-3-3z" id="L1_0" fill="#ffffff"/><path d="m29 6h6c.5522847 0 1-.44771525 1-1s-.4477153-1-1-1h-6c-.5522847 0-1 .44771525-1 1s.4477153 1 1 1z" id="L1_1" fill="#ffffff"/><path d="m39 6h2c.5522847 0 1-.44771525 1-1s-.4477153-1-1-1h-2c-.5522847 0-1 .44771525-1 1s.4477153 1 1 1z" id="L1_2" fill="#ffffff"/><path d="m6 51h1c.55228475 0 1-.4477153 1-1s-.44771525-1-1-1h-1c-.55228475 0-1 .4477153-1 1s.44771525 1 1 1z" id="L1_3" fill="#ffffff"/><path d="m40 49h-9c-.5522847 0-1 .4477153-1 1s.4477153 1 1 1h9c.5522847 0 1-.4477153 1-1s-.4477153-1-1-1z" id="L1_4" fill="#ffffff"/><path d="m26 49h-15c-.5522847 0-1 .4477153-1 1s.4477153 1 1 1h15c.5522847 0 1-.4477153 1-1s-.4477153-1-1-1z" id="L1_5" fill="#ffffff"/><path d="m11 37h4v4c.0033061 2.7600532 2.2399468 4.9966939 5 5h6c2.7600532-.0033061 4.9966939-2.2399468 5-5v-4h4c2.7600532-.0033061 4.9966939-2.2399468 5-5v-6c-.0033061-2.7600532-2.2399468-4.9966939-5-5h-4v-4c-.0033061-2.7600532-2.2399468-4.9966939-5-5h-6c-2.7600532.0033061-4.9966939 2.2399468-5 5v4h-4c-2.76005315.0033061-4.99669388 2.2399468-5 5v6c.00330612 2.7600532 2.23994685 4.9966939 5 5zm24-14c1.6568542 0 3 1.3431458 3 3v6c0 1.6568542-1.3431458 3-3 3h-12c-.5522847 0-1 .4477153-1 1s.4477153 1 1 1h6v4c0 1.6568542-1.3431458 3-3 3h-6c-1.6568542 0-3-1.3431458-3-3v-8c0-1.6568542 1.3431458-3 3-3h6c2.7600532-.0033061 4.9966939-2.2399468 5-5v-2zm-27 3c0-1.6568542 1.34314575-3 3-3h12c.5522847 0 1-.4477153 1-1s-.4477153-1-1-1h-6v-4c0-1.6568542 1.3431458-3 3-3h6c1.6568542 0 3 1.3431458 3 3v8c0 1.6568542-1.3431458 3-3 3h-6c-2.7600532.0033061-4.9966939 2.2399468-5 5v2h-4c-1.65685425 0-3-1.3431458-3-3z" id="Shape" fill="#ffffff"/><circle cx="21" cy="18" r="1" id="L1_6" fill="#ffffff"/><circle cx="25" cy="40" r="1" id="Oval" fill="#ffffff"/></g><g transform="matrix(0.07404525353281088 -0.07404525353281088 0.07404525353281088 0.07404525353281088 -0.5533463170192867 55.98922908655878)" id="L1_8"><path d="M126.923,193.689c4.77-5.465,7.156-13.416,7.156-23.854V86.17H115.12v83.789c0,5.504-0.897,9.551-2.691,12.141     c-1.795,2.588-4.771,3.883-8.93,3.883c-2.691,0-5.666-0.408-8.929-1.223v15.779c3.18,0.896,6.911,1.346,11.192,1.346     C115.099,201.885,122.153,199.152,126.923,193.689z" fill="#ffffff"/><path d="M283.149,52.723L232.625,2.197C231.218,0.79,229.311,0,227.321,0H40.342c-4.142,0-7.5,3.358-7.5,7.5v303.188     c0,4.142,3.358,7.5,7.5,7.5h237.504c4.143,0,7.5-3.358,7.5-7.5V58.025C285.346,56.036,284.556,54.129,283.149,52.723z      M234.821,25.606l24.918,24.919h-24.918V25.606z M47.842,15h171.98v10.263H47.842V15z M270.346,303.188H47.842V40.263h171.98     v17.763c0,4.143,3.357,7.5,7.5,7.5h43.024V303.188z" fill="#ffffff"/><path d="M187.532,123.967c-6.32-3.017-10.326-5.107-12.018-6.27c-1.692-1.162-2.926-2.363-3.699-3.607     c-0.775-1.244-1.162-2.701-1.162-4.373c0-2.691,0.957-4.872,2.874-6.545c1.916-1.671,4.668-2.508,8.257-2.508     c3.017,0,6.085,0.389,9.204,1.162c3.119,0.775,7.063,2.141,11.835,4.098l6.115-14.738c-4.607-1.998-9.021-3.548-13.24-4.648     c-4.221-1.102-8.654-1.651-13.303-1.651c-9.46,0-16.871,2.263-22.232,6.788c-5.361,4.526-8.042,10.744-8.042,18.654     c0,4.199,0.815,7.869,2.446,11.009s3.812,5.892,6.545,8.257c2.73,2.365,6.828,4.831,12.293,7.4     c5.83,2.773,9.693,4.791,11.59,6.055c1.896,1.264,3.332,2.578,4.311,3.944c0.98,1.366,1.469,2.927,1.469,4.679     c0,3.141-1.111,5.504-3.334,7.095c-2.223,1.59-5.412,2.386-9.57,2.386c-3.467,0-7.289-0.551-11.469-1.652     c-4.18-1.101-9.286-2.996-15.32-5.688v17.614c7.34,3.589,15.779,5.382,25.32,5.382c10.356,0,18.439-2.324,24.25-6.973     c5.811-4.648,8.715-11.008,8.715-19.082c0-5.83-1.549-10.753-4.647-14.77C201.62,131.969,195.891,127.963,187.532,123.967z" fill="#ffffff"/><path d="M132.57,277.794L132.57,277.794c-0.001,3.129-0.461,5.338-1.379,6.63c-0.919,1.29-2.451,1.936-4.594,1.936     c-0.919,0-1.772-0.082-2.56-0.246c-0.788-0.164-1.531-0.313-2.232-0.443v10.075c2.123,0.46,4.365,0.689,6.728,0.689     c5.688,0,9.955-1.669,12.799-5.005s4.266-8.254,4.266-14.752v-43.286H132.57V277.794z" fill="#ffffff"/><path d="M176.317,252.755c-4.311-1.969-6.952-3.325-7.926-4.069c-0.974-0.743-1.46-1.586-1.46-2.526     c-0.001-0.877,0.381-1.61,1.147-2.201s1.99-0.887,3.676-0.887c3.26,0,7.132,1.029,11.617,3.086l3.971-10.01     c-5.163-2.297-10.229-3.445-15.194-3.445c-5.623,0-10.042,1.236-13.259,3.708c-3.216,2.473-4.823,5.919-4.823,10.337     c0,2.363,0.377,4.409,1.132,6.137c0.755,1.729,1.914,3.261,3.479,4.596c1.564,1.334,3.91,2.713,7.039,4.135     c3.457,1.553,5.584,2.582,6.384,3.084c0.798,0.504,1.378,1.002,1.739,1.494c0.36,0.492,0.541,1.066,0.541,1.723     c0,1.05-0.448,1.908-1.346,2.576c-0.897,0.668-2.309,1.001-4.233,1.001c-2.231,0-4.682-0.355-7.351-1.067     c-2.67-0.71-5.24-1.7-7.713-2.969v11.551c2.341,1.116,4.595,1.898,6.761,2.347c2.166,0.448,4.846,0.673,8.04,0.673     c3.829,0,7.165-0.64,10.01-1.92c2.844-1.279,5.022-3.073,6.53-5.382c1.51-2.308,2.265-4.95,2.265-7.925     c0-3.238-0.804-5.924-2.412-8.058C183.324,256.611,180.451,254.614,176.317,252.755z" fill="#ffffff"/></g><path d="M29.331,2.256H2.259C1.01,2.256,0,3.265,0,4.511v22.565c0,1.244,1.01,2.255,2.259,2.255h27.072   c1.242,0,2.255-1.011,2.255-2.255V4.511C31.586,3.265,30.573,2.256,29.331,2.256z M10.788,3.95c0.623,0,1.126,0.502,1.126,1.128   c0,0.623-0.503,1.125-1.126,1.125S9.659,5.701,9.659,5.078C9.659,4.452,10.165,3.95,10.788,3.95z M7.334,3.95   c0.623,0,1.129,0.502,1.129,1.128c0,0.623-0.506,1.125-1.129,1.125c-0.625,0-1.131-0.503-1.131-1.125   C6.203,4.452,6.709,3.95,7.334,3.95z M3.947,3.95c0.623,0,1.129,0.502,1.129,1.128c0,0.623-0.506,1.125-1.129,1.125   c-0.621,0-1.126-0.503-1.126-1.125C2.821,4.452,3.326,3.95,3.947,3.95z M29.331,27.076H2.259V7.922h27.072   C29.331,7.922,29.331,27.076,29.331,27.076z M29.331,5.665H13.536V4.537h15.795C29.331,4.537,29.331,5.665,29.331,5.665z" transform="matrix(0.7535701413345334 -0.7535701413345334 0.7535701413345334 0.7535701413345334 108.86157661370562 174.7797765674966)" id="L1_10" fill="#ffffff"/></defs><g fi:class="KUsePattern"><pattern id="pattern_L1_7" width="350" height="350" patternUnits="userSpaceOnUse"><use xlink:href="#L1_7" x="-350" y="-350"/><use xlink:href="#L1_7" x="0" y="-350"/><use xlink:href="#L1_7" x="350" y="-350"/><use xlink:href="#L1_7" x="-350" y="0"/><use xlink:href="#L1_7" x="0" y="0"/><use xlink:href="#L1_7" x="350" y="0"/><use xlink:href="#L1_7" x="-350" y="350"/><use xlink:href="#L1_7" x="0" y="350"/><use xlink:href="#L1_7" x="350" y="350"/></pattern><rect x="0" y="0" width="100%" height="100%" fill="url(#pattern_L1_7)"/></g><g fi:class="KUsePattern"><pattern id="pattern_L1_8" width="350" height="350" patternUnits="userSpaceOnUse"><use xlink:href="#L1_8" x="-350" y="-350"/><use xlink:href="#L1_8" x="0" y="-350"/><use xlink:href="#L1_8" x="350" y="-350"/><use xlink:href="#L1_8" x="-350" y="0"/><use xlink:href="#L1_8" x="0" y="0"/><use xlink:href="#L1_8" x="350" y="0"/><use xlink:href="#L1_8" x="-350" y="350"/><use xlink:href="#L1_8" x="0" y="350"/><use xlink:href="#L1_8" x="350" y="350"/></pattern><rect x="0" y="0" width="100%" height="100%" fill="url(#pattern_L1_8)"/></g><g fi:class="KUsePattern" opacity="1"><pattern id="pattern_L1_10" width="350" height="350" patternUnits="userSpaceOnUse"><use xlink:href="#L1_10" x="-350" y="-350"/><use xlink:href="#L1_10" x="0" y="-350"/><use xlink:href="#L1_10" x="350" y="-350"/><use xlink:href="#L1_10" x="-350" y="0"/><use xlink:href="#L1_10" x="0" y="0"/><use xlink:href="#L1_10" x="350" y="0"/><use xlink:href="#L1_10" x="-350" y="350"/><use xlink:href="#L1_10" x="0" y="350"/><use xlink:href="#L1_10" x="350" y="350"/></pattern><rect x="0" y="0" width="100%" height="100%" fill="url(#pattern_L1_10)"/></g></svg>